<svg xmlns="http://www.w3.org/2000/svg" xmlns:xlink="http://www.w3.org/1999/xlink" id="Capa_1" x="0px" y="0px" viewBox="0 0 512 512" style="enable-background:new 0 0 512 512;" xml:space="preserve">
<g>
	<circle style="fill:#2196F3;" cx="64" cy="64" r="64"></circle>
	<path style="fill:#2196F3;" d="M10.667,170.667h106.667c5.891,0,10.667,4.776,10.667,10.667v320   c0,5.891-4.776,10.667-10.667,10.667H10.667C4.776,512,0,507.224,0,501.333v-320C0,175.442,4.776,170.667,10.667,170.667z"></path>
	<path style="fill:#2196F3;" d="M435.2,155.989c-46.708-13.31-96.923-4.98-136.832,22.699c-1.211-4.732-5.483-8.037-10.368-8.021   H181.333c-5.891,0-10.667,4.776-10.667,10.667v320c0,5.891,4.776,10.667,10.667,10.667H288c5.891,0,10.667-4.776,10.667-10.667   V271.36c15.414-14.524,37.701-19.113,57.6-11.861c18.7,9.237,29.74,29.075,27.733,49.835v192c0,5.891,4.776,10.667,10.667,10.667   h106.667c5.891,0,10.667-4.776,10.667-10.667V287.851C510.784,200.192,469.547,167.744,435.2,155.989z"></path>
</g>
<g>
</g>
<g>
</g>
<g>
</g>
<g>
</g>
<g>
</g>
<g>
</g>
<g>
</g>
<g>
</g>
<g>
</g>
<g>
</g>
<g>
</g>
<g>
</g>
<g>
</g>
<g>
</g>
<g>
</g>
</svg>